<svg width="35" height="44" viewBox="0 0 35 44" fill="none" xmlns="http://www.w3.org/2000/svg">
<path d="M9.55142 39.0449C9.55241 39.5855 9.73736 40.1148 10.0844 40.5652L11.7837 42.7728C12.0739 43.1502 12.4677 43.4598 12.9298 43.6739C13.392 43.888 13.9082 44 14.4325 44H20.5685C21.0928 44 21.609 43.888 22.0712 43.6739C22.5333 43.4598 22.927 43.1502 23.2173 42.7728L24.9166 40.5652C25.2635 40.1148 25.4489 39.586 25.4496 39.0449L25.4536 35.7493H9.54645L9.55142 39.0449ZM0 15.1248C0 18.9377 1.63565 22.4164 4.33125 25.0744C5.97386 26.6943 8.54318 30.0784 9.52258 32.9332C9.52656 32.9555 9.52954 32.9779 9.53352 33.0002H25.4665C25.4705 32.9779 25.4734 32.9564 25.4774 32.9332C26.4568 30.0784 29.0261 26.6943 30.6687 25.0744C33.3643 22.4164 35 18.9377 35 15.1248C35 6.75548 27.1359 -0.0257074 17.4453 7.32669e-05C7.30227 0.0267133 0 7.13016 0 15.1248ZM17.5 8.2499C13.1141 8.2499 9.54545 11.3341 9.54545 15.1248C9.54545 15.8844 8.83352 16.4997 7.95455 16.4997C7.07557 16.4997 6.36364 15.8844 6.36364 15.1248C6.36364 9.81737 11.3591 5.49996 17.5 5.49996C18.379 5.49996 19.0909 6.11526 19.0909 6.87493C19.0909 7.6346 18.379 8.2499 17.5 8.2499Z" fill="white"/>
</svg>
