<svg width="40" height="40" viewBox="0 0 40 40" fill="none" xmlns="http://www.w3.org/2000/svg">
<path d="M10.1168 28.3305C9.21157 27.6516 9.68344 27.843 7.50013 27.4048C6.50951 27.2056 5.63869 26.8228 4.8512 26.3642L0.125205 35.0546C-0.332082 35.896 0.522075 36.8101 1.73248 36.7757L7.22096 36.6186L10.9959 39.6092C11.8293 40.2686 13.2917 40.0631 13.749 39.2217L19.1708 29.2516C18.0417 29.7235 16.7886 30 15.4928 30C13.4615 30 11.5532 29.4071 10.1168 28.3305ZM39.8748 35.0546L35.1488 26.3642C34.3613 26.8235 33.4905 27.2056 32.4999 27.4048C30.3051 27.8454 30.7864 27.6532 29.8832 28.3305C28.4468 29.4071 26.5374 30 24.5062 30C23.2104 30 21.9573 29.7227 20.8281 29.2516L26.2499 39.2217C26.7072 40.0631 28.1707 40.2686 29.003 39.6092L32.779 36.6186L38.2675 36.7757C39.4779 36.8101 40.3321 35.8952 39.8748 35.0546ZM27.3958 26.5626C28.9874 25.3478 29.1697 25.4525 31.4363 24.9892C32.8832 24.6931 34.0144 23.8298 34.4019 22.7252C35.1811 20.5065 34.979 20.7744 37.105 19.151C38.1644 18.3425 38.5779 17.1636 38.1904 16.0589C37.4123 13.8418 37.4113 14.1511 38.1904 11.9316C38.5779 10.827 38.1644 9.64809 37.105 8.83952C34.979 7.21611 35.1811 7.48329 34.4019 5.26537C34.0144 4.1607 32.8832 3.29744 31.4363 3.00135C28.5322 2.40683 28.8822 2.5623 26.7541 0.938111C25.6947 0.129534 24.15 -0.186866 22.7031 0.109221C19.8 0.70296 20.2052 0.703741 17.2969 0.109221C15.85 -0.186866 14.3053 0.128752 13.2459 0.938111C11.1199 2.56152 11.4699 2.40683 8.5647 3.00135C7.11784 3.29744 5.9866 4.1607 5.59911 5.26537C4.82099 7.48329 5.02203 7.21611 2.89601 8.83952C1.83665 9.64809 1.42207 10.827 1.8106 11.9316C2.58872 14.1472 2.58976 13.8379 1.8106 16.0581C1.42311 17.1628 1.83665 18.3417 2.89601 19.151C5.02203 20.7744 4.81995 20.5065 5.59911 22.7252C5.9866 23.8298 7.11784 24.6931 8.5647 24.9892C10.8959 25.4657 11.0699 25.3907 12.6042 26.5626C13.9824 27.6149 16.1292 27.8032 17.7854 27.0173C18.4477 26.7019 19.216 26.5345 20.0005 26.5345C20.785 26.5345 21.5533 26.7019 22.2156 27.0173C23.8708 27.8032 26.0176 27.6149 27.3958 26.5626ZM10.173 13.7472C10.173 9.60434 14.573 6.24582 20 6.24582C25.427 6.24582 29.827 9.60434 29.827 13.7472C29.827 17.8901 25.427 21.2486 20 21.2486C14.573 21.2486 10.173 17.8901 10.173 13.7472Z" fill="white"/>
</svg>
