<svg width="40" height="30" viewBox="0 0 40 30" fill="none" xmlns="http://www.w3.org/2000/svg">
<path d="M27.1688 0H21.8C21.3 0 20.8188 0.23429 20.45 0.656012L14.3062 7.68471C14.3 7.69252 14.2938 7.70814 14.2875 7.71595C13.25 8.93426 13.2688 10.8789 14.1562 12.0894C14.95 13.1749 16.6187 13.4639 17.6625 12.3002C17.6688 12.2924 17.6812 12.2924 17.6875 12.2846L22.6812 6.56793C23.0875 6.10716 23.725 6.1384 24.0938 6.64603C24.4688 7.15366 24.4375 7.94243 24.0312 8.41101L22.4 10.2775L31.5 19.5085C31.6812 19.696 31.8438 19.899 31.9937 20.1099V4.99819L28.5812 0.734109C28.2125 0.265529 27.7 0 27.1688 0ZM34 5.01381V22.4997C34 23.882 34.8937 24.9987 36 24.9987H40V5.01381H34ZM37 22.4997C36.45 22.4997 36 21.9374 36 21.2501C36 20.5629 36.45 20.0006 37 20.0006C37.55 20.0006 38 20.5629 38 21.2501C38 21.9374 37.55 22.4997 37 22.4997ZM0 24.9909H4C5.10625 24.9909 6 23.8742 6 22.4918V5.01381H0V24.9909ZM3 20.0006C3.55 20.0006 4 20.5629 4 21.2501C4 21.9374 3.55 22.4997 3 22.4997C2.45 22.4997 2 21.9374 2 21.2501C2 20.555 2.45 20.0006 3 20.0006ZM30.2437 21.4532L20.9125 11.9878L19.0375 14.1355C17.1812 16.2519 14.3375 16.0489 12.6812 13.7919C11 11.4958 11.1313 7.94243 12.9563 5.84944L18.0688 0H12.8313C12.3 0 11.7937 0.265529 11.4187 0.734109L8 4.99819V22.484H9.14375L14.8 28.8801C16.5125 30.6217 19.0312 30.2937 20.425 28.1539L20.4375 28.1382L21.5562 29.3487C22.55 30.364 24.0188 30.1687 24.825 28.927L26.7875 25.9125L27.125 26.2561C27.9813 27.123 29.2437 26.9668 29.9375 25.889L30.5312 24.9753C31.2313 23.8976 31.1 22.3278 30.2437 21.4532Z" fill="white"/>
</svg>
