<svg width="48" height="38" viewBox="0 0 48 38" fill="none" xmlns="http://www.w3.org/2000/svg">
<path d="M14.5633 19.1045C19.0859 19.1045 22.7464 15.0486 22.7464 10.0374C22.7464 5.02615 19.0859 0.970215 14.5633 0.970215C10.0407 0.970215 6.38023 5.02615 6.38023 10.0374C6.38023 15.0486 10.0407 19.1045 14.5633 19.1045ZM20.1746 21.6952H19.5682C18.0484 22.5047 16.3607 22.9905 14.5633 22.9905C12.766 22.9905 11.0855 22.5047 9.55848 21.6952H8.95206C4.30523 21.6952 0.535156 25.8725 0.535156 31.0214V33.3529C0.535156 35.4983 2.10602 37.2389 4.0422 37.2389H25.0845C27.0206 37.2389 28.5915 35.4983 28.5915 33.3529V31.0214C28.5915 25.8725 24.8214 21.6952 20.1746 21.6952ZM35.6056 19.1045C39.4779 19.1045 42.6197 15.6234 42.6197 11.3327C42.6197 7.04198 39.4779 3.56083 35.6056 3.56083C31.7332 3.56083 28.5915 7.04198 28.5915 11.3327C28.5915 15.6234 31.7332 19.1045 35.6056 19.1045ZM39.1126 21.6952H38.835C37.8194 22.0838 36.7454 22.3428 35.6056 22.3428C34.4658 22.3428 33.3918 22.0838 32.3762 21.6952H32.0985C30.608 21.6952 29.2345 22.1728 28.0289 22.9419C29.8117 25.0711 30.9295 27.8965 30.9295 31.0214V34.1301C30.9295 34.3082 30.893 34.4782 30.8857 34.6483H43.7887C45.7249 34.6483 47.2957 32.9077 47.2957 30.7623C47.2957 25.7511 43.6352 21.6952 39.1126 21.6952Z" fill="white"/>
</svg>
