<svg width="45" height="39" viewBox="0 0 45 39" fill="none" xmlns="http://www.w3.org/2000/svg">
<path d="M9.14063 17.0625H2.10938C0.944385 17.0625 0 17.881 0 18.8906V37.1719C0 38.1815 0.944385 39 2.10938 39H9.14063C10.3056 39 11.25 38.1815 11.25 37.1719V18.8906C11.25 17.881 10.3056 17.0625 9.14063 17.0625ZM5.625 35.9531C4.46001 35.9531 3.51563 35.1347 3.51563 34.125C3.51563 33.1153 4.46001 32.2969 5.625 32.2969C6.78999 32.2969 7.73438 33.1153 7.73438 34.125C7.73438 35.1347 6.78999 35.9531 5.625 35.9531ZM33.75 6.20435C33.75 9.43526 31.4675 11.2475 30.8253 13.4062H39.7658C42.7011 13.4062 44.9862 15.5197 44.9999 17.8317C45.0073 19.1981 44.3367 20.669 43.2914 21.5791L43.2818 21.5875C44.1463 23.3651 44.0057 25.8559 42.4637 27.6408C43.2267 29.6133 42.4576 32.0362 41.0239 33.3352C41.4016 34.6756 41.2211 35.8165 40.4835 36.7349C38.6897 38.9685 34.2436 39 30.4839 39L30.2339 38.9999C25.9899 38.9986 22.5165 37.6595 19.7257 36.5834C18.3232 36.0426 16.4894 35.3732 15.0981 35.3511C14.5233 35.3419 14.0625 34.9354 14.0625 34.4372V18.1539C14.0625 17.9101 14.1752 17.6762 14.3752 17.5048C17.8569 14.5232 19.3541 11.3664 22.2078 8.88895C23.5089 7.75917 23.9821 6.05262 24.4396 4.40228C24.8304 2.99302 25.648 0 27.4219 0C29.5313 0 33.75 0.609375 33.75 6.20435Z" fill="white"/>
</svg>
